<svg width="512" height="512" viewBox="0 0 512 512" fill="none" xmlns="http://www.w3.org/2000/svg">
  <!-- Круг -->
  <circle cx="256" cy="256" r="230" stroke="#2196F3" stroke-width="20" fill="none"/>
  <!-- V из sample.svg, упрощённая -->
  <path d="M128 80 C180 60 220 180 256 420 C292 180 332 60 384 80 Q400 100 320 400 Q304 460 256 460 Q208 460 192 400 Q112 100 128 80 Z" fill="#2196F3"/>
  <path d="M256 420 C292 180 332 60 384 80 Q400 100 320 400 Q304 460 256 460 Q256 460 256 420 Z" fill="#1766C1"/>
  <!-- Пиксели -->
  <rect x="370" y="90" width="24" height="24" fill="#2196F3"/>
  <rect x="410" y="110" width="16" height="16" fill="#1766C1"/>
  <rect x="390" y="60" width="12" height="12" fill="#2196F3"/>
  <rect x="430" y="150" width="10" height="10" fill="#1766C1"/>
  <rect x="450" y="130" width="8" height="8" fill="#2196F3"/>
</svg>
