<svg width="251" height="251" viewBox="0 0 251 251" fill="none" xmlns="http://www.w3.org/2000/svg">
<path fill-rule="evenodd" clip-rule="evenodd" d="M0 125.605C0 56.467 56.4672 0 125.613 0C194.53 0 251 56.467 251 125.605V227.433C251 243.218 240.102 249.216 228.988 235.214C218.319 221.872 210.315 203.866 203.866 203.866C193.419 203.866 185.638 251 164.736 251C143.842 251 136.061 203.866 125.613 203.866C114.936 203.866 107.158 251 86.2611 251C65.3639 251 57.582 203.866 47.1311 203.866C40.686 203.866 32.682 221.872 22.0091 235.214C10.8915 249.215 0 243.218 0 227.433V125.605Z" fill="url(#paint0_linear_10606_126)"/>
<path fill-rule="evenodd" clip-rule="evenodd" d="M168.743 86.2607C183.861 86.2607 196.085 98.4847 196.085 113.826C196.085 128.945 183.861 141.169 168.743 141.169C153.401 141.169 141.17 128.944 141.17 113.826C141.17 98.4847 153.401 86.2607 168.743 86.2607ZM82.4819 86.2607C67.1405 86.2607 54.9131 98.4847 54.9131 113.826C54.9131 128.945 67.1405 141.169 82.4819 141.169C97.5973 141.169 109.825 128.944 109.825 113.826C109.825 98.4847 97.5973 86.2607 82.4819 86.2607Z" fill="#F1F0F0"/>
<path fill-rule="evenodd" clip-rule="evenodd" d="M82.481 102.042C88.9261 102.042 94.0383 107.158 94.0383 113.826C94.0383 120.275 88.9261 125.605 82.481 125.605C75.8099 125.605 70.6973 120.274 70.6973 113.826C70.6973 107.158 75.8099 102.042 82.481 102.042ZM168.742 102.042C175.19 102.042 180.299 107.158 180.299 113.826C180.299 120.275 175.19 125.605 168.742 125.605C162.071 125.605 156.954 120.274 156.954 113.826C156.954 107.158 162.071 102.042 168.742 102.042Z" fill="#0B1319"/>
<defs>
<linearGradient id="paint0_linear_10606_126" x1="1.48603e-07" y1="49.0591" x2="173.936" y2="288.221" gradientUnits="userSpaceOnUse">
<stop stop-color="#BD14CC"/>
<stop offset="1" stop-color="#004CE5"/>
</linearGradient>
</defs>
</svg>
